<?xml version="1.0" encoding="UTF-8"?>
<svg width="512" height="512" viewBox="0 0 512 512" fill="none" xmlns="http://www.w3.org/2000/svg">
    <rect width="512" height="512" rx="128" fill="#2563eb"/>
    <g transform="translate(128, 128) scale(1.0)" fill="#FFFFFF">
        <circle cx="128" cy="128" r="108" fill="white" opacity="0.9"/>
        <path d="M128 192c-35.346 0-64-28.654-64-64s28.654-64 64-64 64 28.654 64 64-28.654 64-64 64zm0-106.667c-23.564 0-42.667 19.103-42.667 42.667s19.103 42.667 42.667 42.667 42.667-19.103 42.667-42.667-19.103-42.667-42.667-42.667z"/>
        <path d="M149.333 138.667h-42.666v-42.667h42.666v42.667zm-21.333-32h-10.667v21.333h21.334v-10.666h-10.667v-10.667z"/>
    </g>
</svg>